<svg xmlns="http://www.w3.org/2000/svg" xmlns:xlink="http://www.w3.org/1999/xlink" width="55" height="55" viewBox="0 0 55 55">
    <defs>
        <path id="a" d="M19.792 30.363c3.548-6.013 11.875 0 11.875 0v-19S23.34 4.321 19.792 9.78v20.583zm-1.584 0c-3.548-6.013-11.875 0-11.875 0v-19s8.325-7.042 11.875-1.583v20.583z"/>
    </defs>
    <g fill="none" fill-rule="evenodd">
        <path fill="#000" fill-rule="nonzero" d="M54.084 34.622c-1.903 7.122-6.413 13.045-12.826 16.711A27.656 27.656 0 0 1 27.516 55c-9.796 0-18.957-5.288-23.82-13.75C.03 34.904-.955 27.5.947 20.378 2.85 13.256 7.36 7.333 13.773 3.667A27.656 27.656 0 0 1 27.516 0c9.795 0 18.957 5.288 23.82 13.75 3.664 6.346 4.58 13.75 2.748 20.872z" opacity=".3"/>
        <path fill="#FFF" fill-rule="nonzero" d="M50.11 14.47C42.924 2.003 26.936-2.293 14.47 4.89 2.003 12.076-2.293 28.064 4.89 40.53c7.185 12.467 23.173 16.763 35.64 9.58 12.467-7.256 16.763-23.173 9.58-35.64zm.233 19.171c-1.647 6.142-5.542 11.235-11.01 14.38-3.594 2.098-7.713 3.146-11.832 3.146-8.463 0-16.327-4.568-20.521-11.833C3.834 33.866 3.01 27.5 4.583 21.359c1.573-6.142 5.543-11.235 11.01-14.38 3.595-2.098 7.714-3.146 11.833-3.146 8.463 0 16.327 4.568 20.52 11.833 3.221 5.468 4.045 11.834 2.397 17.975z"/>
        <g transform="translate(8.462 7.756)">
            <mask id="b" fill="#fff">
                <use xlink:href="#a"/>
            </mask>
            <use fill="#FFF" xlink:href="#a"/>
            <g fill="#FFF" mask="url(#b)">
                <path d="M0 38h38V0H0z"/>
            </g>
        </g>
    </g>
</svg>
