<svg xmlns="http://www.w3.org/2000/svg" width="44" height="44" viewBox="0 0 44 44">
    <g fill="none" fill-rule="evenodd">
        <path fill="#000" fill-rule="nonzero" d="M43.267 27.697c-1.522 5.698-5.13 10.436-10.26 13.37A22.125 22.125 0 0 1 22.012 44c-7.837 0-15.166-4.23-19.056-11C.025 27.923-.764 22 .758 16.303c1.522-5.698 5.13-10.436 10.26-13.37A22.125 22.125 0 0 1 22.014 0c7.836 0 15.165 4.23 19.055 11 2.932 5.077 3.665 11 2.2 16.697z" opacity=".3"/>
        <path fill="#FFF" fill-rule="nonzero" d="M40.087 11.576C34.34 1.603 21.55-1.834 11.576 3.913 1.603 9.66-1.834 22.45 3.913 32.424c5.747 9.973 18.538 13.41 28.511 7.663 9.973-5.803 13.41-18.538 7.663-28.511zm.188 15.337c-1.319 4.913-4.434 8.988-8.808 11.504-2.876 1.678-6.171 2.517-9.466 2.517-6.77 0-13.062-3.655-16.417-9.467C3.068 27.093 2.409 22 3.667 17.087 4.925 12.174 8.1 8.099 12.474 5.583c2.876-1.678 6.171-2.517 9.467-2.517 6.77 0 13.061 3.655 16.416 9.467 2.577 4.374 3.236 9.467 1.918 14.38z"/>
        <path d="M6.77 36.204h30V6.205h-30z"/>
        <path fill="#FFF" fill-rule="nonzero" d="M29.22 21.001l-10.688-6.225c-.991-.551-1.763-.11-1.763.991l.055 12.342c0 1.102.827 1.597 1.763 1.047l10.579-6.116c1.046-.551 1.046-1.488.055-2.039z"/>
    </g>
</svg>
